<mxfile host="Electron" agent="Mozilla/5.0 (Macintosh; Intel Mac OS X 10_15_7) AppleWebKit/537.36 (KHTML, like Gecko) draw.io/24.7.17 Chrome/128.0.6613.36 Electron/32.0.1 Safari/537.36" version="24.7.17">
  <diagram name="Page-1" id="qwKbzZS1xFQFBiHG2Uf9">
    <mxGraphModel dx="464" dy="348" grid="1" gridSize="10" guides="1" tooltips="1" connect="1" arrows="1" fold="1" page="1" pageScale="1" pageWidth="827" pageHeight="1169" math="0" shadow="0">
      <root>
        <mxCell id="0" />
        <mxCell id="1" parent="0" />
        <mxCell id="6-SauHccT2Y6gQmHOIjK-48" value="" style="endArrow=none;html=1;rounded=0;" edge="1" parent="1">
          <mxGeometry width="50" height="50" relative="1" as="geometry">
            <mxPoint x="419.87" y="540" as="sourcePoint" />
            <mxPoint x="419.87" y="510" as="targetPoint" />
          </mxGeometry>
        </mxCell>
        <mxCell id="6-SauHccT2Y6gQmHOIjK-49" value="" style="endArrow=none;html=1;rounded=0;" edge="1" parent="1">
          <mxGeometry width="50" height="50" relative="1" as="geometry">
            <mxPoint x="429.87" y="540" as="sourcePoint" />
            <mxPoint x="429.87" y="510" as="targetPoint" />
          </mxGeometry>
        </mxCell>
        <mxCell id="6-SauHccT2Y6gQmHOIjK-50" value="&lt;span style=&quot;font-size: 6.66667px;&quot;&gt;c&lt;sub&gt;0&lt;/sub&gt;&lt;/span&gt;" style="text;html=1;align=center;verticalAlign=middle;whiteSpace=wrap;rounded=0;" vertex="1" parent="1">
          <mxGeometry x="415" y="540" width="10" as="geometry" />
        </mxCell>
        <mxCell id="6-SauHccT2Y6gQmHOIjK-51" value="&lt;span style=&quot;font-size: 6.66667px;&quot;&gt;c&lt;sub&gt;1&lt;/sub&gt;&lt;/span&gt;" style="text;html=1;align=center;verticalAlign=middle;whiteSpace=wrap;rounded=0;" vertex="1" parent="1">
          <mxGeometry x="425" y="540" width="10" as="geometry" />
        </mxCell>
        <mxCell id="6-SauHccT2Y6gQmHOIjK-34" value="" style="rounded=0;whiteSpace=wrap;html=1;" vertex="1" parent="1">
          <mxGeometry x="360" y="320" width="130" height="200" as="geometry" />
        </mxCell>
        <mxCell id="6-SauHccT2Y6gQmHOIjK-1" value="" style="endArrow=none;html=1;rounded=0;" edge="1" parent="1">
          <mxGeometry width="50" height="50" relative="1" as="geometry">
            <mxPoint x="408.87" y="410" as="sourcePoint" />
            <mxPoint x="408.87" y="380" as="targetPoint" />
          </mxGeometry>
        </mxCell>
        <mxCell id="6-SauHccT2Y6gQmHOIjK-2" value="&lt;span style=&quot;font-size: 6.66667px;&quot;&gt;c&lt;sub&gt;1&lt;/sub&gt;&lt;/span&gt;" style="text;html=1;align=center;verticalAlign=middle;whiteSpace=wrap;rounded=0;" vertex="1" parent="1">
          <mxGeometry x="404" y="410" width="10" as="geometry" />
        </mxCell>
        <mxCell id="6-SauHccT2Y6gQmHOIjK-3" value="" style="endArrow=none;html=1;rounded=0;" edge="1" parent="1">
          <mxGeometry width="50" height="50" relative="1" as="geometry">
            <mxPoint x="380" y="360" as="sourcePoint" />
            <mxPoint x="400" y="360" as="targetPoint" />
          </mxGeometry>
        </mxCell>
        <mxCell id="6-SauHccT2Y6gQmHOIjK-4" value="" style="endArrow=none;html=1;rounded=0;" edge="1" parent="1">
          <mxGeometry width="50" height="50" relative="1" as="geometry">
            <mxPoint x="380" y="380" as="sourcePoint" />
            <mxPoint x="400" y="380" as="targetPoint" />
          </mxGeometry>
        </mxCell>
        <mxCell id="6-SauHccT2Y6gQmHOIjK-5" value="&lt;font style=&quot;font-size: 8px;&quot;&gt;x&lt;sub&gt;0&lt;/sub&gt;&lt;/font&gt;" style="text;html=1;align=center;verticalAlign=middle;whiteSpace=wrap;rounded=0;" vertex="1" parent="1">
          <mxGeometry x="370" y="350" width="10" as="geometry" />
        </mxCell>
        <mxCell id="6-SauHccT2Y6gQmHOIjK-6" value="&lt;font style=&quot;font-size: 8px;&quot;&gt;x&lt;/font&gt;&lt;font style=&quot;font-size: 6.66667px;&quot;&gt;&lt;sub&gt;1&lt;/sub&gt;&lt;/font&gt;" style="text;html=1;align=center;verticalAlign=middle;whiteSpace=wrap;rounded=0;" vertex="1" parent="1">
          <mxGeometry x="370" y="370" width="10" as="geometry" />
        </mxCell>
        <mxCell id="6-SauHccT2Y6gQmHOIjK-7" value="&lt;div&gt;&lt;span style=&quot;background-color: initial;&quot;&gt;&lt;font style=&quot;font-size: 8px;&quot;&gt;mux 2:1&lt;/font&gt;&lt;/span&gt;&lt;br&gt;&lt;/div&gt;" style="shape=trapezoid;perimeter=trapezoidPerimeter;whiteSpace=wrap;html=1;fixedSize=1;rotation=90;" vertex="1" parent="1">
          <mxGeometry x="380" y="360" width="60" height="20" as="geometry" />
        </mxCell>
        <mxCell id="6-SauHccT2Y6gQmHOIjK-8" value="" style="endArrow=none;html=1;rounded=0;exitX=0.5;exitY=0;exitDx=0;exitDy=0;" edge="1" parent="1">
          <mxGeometry width="50" height="50" relative="1" as="geometry">
            <mxPoint x="420" y="369.99999999999994" as="sourcePoint" />
            <mxPoint x="440" y="370" as="targetPoint" />
          </mxGeometry>
        </mxCell>
        <mxCell id="6-SauHccT2Y6gQmHOIjK-9" value="&lt;span style=&quot;font-size: 8px;&quot;&gt;u&lt;sub&gt;1&lt;/sub&gt;&lt;/span&gt;" style="text;html=1;align=center;verticalAlign=middle;whiteSpace=wrap;rounded=0;" vertex="1" parent="1">
          <mxGeometry x="440" y="379.99999999999994" width="10" as="geometry" />
        </mxCell>
        <mxCell id="6-SauHccT2Y6gQmHOIjK-10" value="" style="endArrow=none;html=1;rounded=0;" edge="1" parent="1">
          <mxGeometry width="50" height="50" relative="1" as="geometry">
            <mxPoint x="408.87" y="510" as="sourcePoint" />
            <mxPoint x="408.87" y="480" as="targetPoint" />
          </mxGeometry>
        </mxCell>
        <mxCell id="6-SauHccT2Y6gQmHOIjK-11" value="&lt;span style=&quot;font-size: 6.66667px;&quot;&gt;c&lt;sub&gt;1&lt;/sub&gt;&lt;/span&gt;" style="text;html=1;align=center;verticalAlign=middle;whiteSpace=wrap;rounded=0;" vertex="1" parent="1">
          <mxGeometry x="404" y="510" width="10" as="geometry" />
        </mxCell>
        <mxCell id="6-SauHccT2Y6gQmHOIjK-12" value="" style="endArrow=none;html=1;rounded=0;" edge="1" parent="1">
          <mxGeometry width="50" height="50" relative="1" as="geometry">
            <mxPoint x="380" y="460" as="sourcePoint" />
            <mxPoint x="400" y="460" as="targetPoint" />
          </mxGeometry>
        </mxCell>
        <mxCell id="6-SauHccT2Y6gQmHOIjK-13" value="" style="endArrow=none;html=1;rounded=0;" edge="1" parent="1">
          <mxGeometry width="50" height="50" relative="1" as="geometry">
            <mxPoint x="380" y="480" as="sourcePoint" />
            <mxPoint x="400" y="480" as="targetPoint" />
          </mxGeometry>
        </mxCell>
        <mxCell id="6-SauHccT2Y6gQmHOIjK-14" value="&lt;font style=&quot;font-size: 8px;&quot;&gt;x&lt;/font&gt;&lt;font style=&quot;font-size: 6.66667px;&quot;&gt;&lt;sub&gt;2&lt;/sub&gt;&lt;/font&gt;" style="text;html=1;align=center;verticalAlign=middle;whiteSpace=wrap;rounded=0;" vertex="1" parent="1">
          <mxGeometry x="370" y="450" width="10" as="geometry" />
        </mxCell>
        <mxCell id="6-SauHccT2Y6gQmHOIjK-15" value="&lt;font style=&quot;font-size: 8px;&quot;&gt;x&lt;/font&gt;&lt;font style=&quot;font-size: 5.55556px;&quot;&gt;&lt;sub&gt;3&lt;/sub&gt;&lt;/font&gt;" style="text;html=1;align=center;verticalAlign=middle;whiteSpace=wrap;rounded=0;" vertex="1" parent="1">
          <mxGeometry x="370" y="470" width="10" as="geometry" />
        </mxCell>
        <mxCell id="6-SauHccT2Y6gQmHOIjK-16" value="&lt;div&gt;&lt;span style=&quot;background-color: initial;&quot;&gt;&lt;font style=&quot;font-size: 8px;&quot;&gt;mux 2:1&lt;/font&gt;&lt;/span&gt;&lt;br&gt;&lt;/div&gt;" style="shape=trapezoid;perimeter=trapezoidPerimeter;whiteSpace=wrap;html=1;fixedSize=1;rotation=90;" vertex="1" parent="1">
          <mxGeometry x="380" y="460" width="60" height="20" as="geometry" />
        </mxCell>
        <mxCell id="6-SauHccT2Y6gQmHOIjK-17" value="" style="endArrow=none;html=1;rounded=0;exitX=0.5;exitY=0;exitDx=0;exitDy=0;" edge="1" parent="1">
          <mxGeometry width="50" height="50" relative="1" as="geometry">
            <mxPoint x="420" y="469.99999999999994" as="sourcePoint" />
            <mxPoint x="440" y="469.99999999999994" as="targetPoint" />
          </mxGeometry>
        </mxCell>
        <mxCell id="6-SauHccT2Y6gQmHOIjK-18" value="&lt;span style=&quot;font-size: 8px;&quot;&gt;u&lt;sub&gt;2&lt;/sub&gt;&lt;/span&gt;" style="text;html=1;align=center;verticalAlign=middle;whiteSpace=wrap;rounded=0;" vertex="1" parent="1">
          <mxGeometry x="440" y="459.99999999999994" width="10" as="geometry" />
        </mxCell>
        <mxCell id="6-SauHccT2Y6gQmHOIjK-19" value="" style="endArrow=none;html=1;rounded=0;" edge="1" parent="1">
          <mxGeometry width="50" height="50" relative="1" as="geometry">
            <mxPoint x="468.87" y="460" as="sourcePoint" />
            <mxPoint x="468.87" y="430" as="targetPoint" />
          </mxGeometry>
        </mxCell>
        <mxCell id="6-SauHccT2Y6gQmHOIjK-20" value="&lt;span style=&quot;font-size: 6.66667px;&quot;&gt;c&lt;sub&gt;0&lt;/sub&gt;&lt;/span&gt;" style="text;html=1;align=center;verticalAlign=middle;whiteSpace=wrap;rounded=0;" vertex="1" parent="1">
          <mxGeometry x="464" y="460" width="10" as="geometry" />
        </mxCell>
        <mxCell id="6-SauHccT2Y6gQmHOIjK-21" value="" style="endArrow=none;html=1;rounded=0;" edge="1" parent="1">
          <mxGeometry width="50" height="50" relative="1" as="geometry">
            <mxPoint x="440" y="410" as="sourcePoint" />
            <mxPoint x="460" y="410" as="targetPoint" />
          </mxGeometry>
        </mxCell>
        <mxCell id="6-SauHccT2Y6gQmHOIjK-22" value="" style="endArrow=none;html=1;rounded=0;" edge="1" parent="1">
          <mxGeometry width="50" height="50" relative="1" as="geometry">
            <mxPoint x="440" y="430" as="sourcePoint" />
            <mxPoint x="460" y="430" as="targetPoint" />
          </mxGeometry>
        </mxCell>
        <mxCell id="6-SauHccT2Y6gQmHOIjK-25" value="&lt;div&gt;&lt;span style=&quot;background-color: initial;&quot;&gt;&lt;font style=&quot;font-size: 8px;&quot;&gt;mux 2:1&lt;/font&gt;&lt;/span&gt;&lt;br&gt;&lt;/div&gt;" style="shape=trapezoid;perimeter=trapezoidPerimeter;whiteSpace=wrap;html=1;fixedSize=1;rotation=90;" vertex="1" parent="1">
          <mxGeometry x="440" y="410" width="60" height="20" as="geometry" />
        </mxCell>
        <mxCell id="6-SauHccT2Y6gQmHOIjK-26" value="" style="endArrow=none;html=1;rounded=0;exitX=0.5;exitY=0;exitDx=0;exitDy=0;" edge="1" parent="1">
          <mxGeometry width="50" height="50" relative="1" as="geometry">
            <mxPoint x="480" y="419.99999999999994" as="sourcePoint" />
            <mxPoint x="500" y="419.99999999999994" as="targetPoint" />
          </mxGeometry>
        </mxCell>
        <mxCell id="6-SauHccT2Y6gQmHOIjK-27" value="&lt;span style=&quot;font-size: 8px;&quot;&gt;u&lt;/span&gt;" style="text;html=1;align=center;verticalAlign=middle;whiteSpace=wrap;rounded=0;" vertex="1" parent="1">
          <mxGeometry x="490" y="409.99999999999994" width="10" as="geometry" />
        </mxCell>
        <mxCell id="6-SauHccT2Y6gQmHOIjK-28" value="" style="endArrow=none;html=1;rounded=0;" edge="1" parent="1">
          <mxGeometry width="50" height="50" relative="1" as="geometry">
            <mxPoint x="440" y="410" as="sourcePoint" />
            <mxPoint x="440" y="370" as="targetPoint" />
          </mxGeometry>
        </mxCell>
        <mxCell id="6-SauHccT2Y6gQmHOIjK-29" value="" style="endArrow=none;html=1;rounded=0;" edge="1" parent="1">
          <mxGeometry width="50" height="50" relative="1" as="geometry">
            <mxPoint x="439.57" y="470" as="sourcePoint" />
            <mxPoint x="439.57" y="430" as="targetPoint" />
          </mxGeometry>
        </mxCell>
        <mxCell id="6-SauHccT2Y6gQmHOIjK-39" value="" style="endArrow=none;html=1;rounded=0;" edge="1" parent="1">
          <mxGeometry width="50" height="50" relative="1" as="geometry">
            <mxPoint x="340" y="389.73" as="sourcePoint" />
            <mxPoint x="360" y="389.73" as="targetPoint" />
          </mxGeometry>
        </mxCell>
        <mxCell id="6-SauHccT2Y6gQmHOIjK-40" value="" style="endArrow=none;html=1;rounded=0;" edge="1" parent="1">
          <mxGeometry width="50" height="50" relative="1" as="geometry">
            <mxPoint x="340" y="409.73" as="sourcePoint" />
            <mxPoint x="360" y="409.73" as="targetPoint" />
          </mxGeometry>
        </mxCell>
        <mxCell id="6-SauHccT2Y6gQmHOIjK-41" value="&lt;font style=&quot;font-size: 8px;&quot;&gt;x&lt;sub&gt;0&lt;/sub&gt;&lt;/font&gt;" style="text;html=1;align=center;verticalAlign=middle;whiteSpace=wrap;rounded=0;" vertex="1" parent="1">
          <mxGeometry x="330" y="379.73" width="10" as="geometry" />
        </mxCell>
        <mxCell id="6-SauHccT2Y6gQmHOIjK-42" value="&lt;font style=&quot;font-size: 8px;&quot;&gt;x&lt;/font&gt;&lt;font style=&quot;font-size: 6.66667px;&quot;&gt;&lt;sub&gt;1&lt;/sub&gt;&lt;/font&gt;" style="text;html=1;align=center;verticalAlign=middle;whiteSpace=wrap;rounded=0;" vertex="1" parent="1">
          <mxGeometry x="330" y="399.73" width="10" as="geometry" />
        </mxCell>
        <mxCell id="6-SauHccT2Y6gQmHOIjK-43" value="" style="endArrow=none;html=1;rounded=0;" edge="1" parent="1">
          <mxGeometry width="50" height="50" relative="1" as="geometry">
            <mxPoint x="340" y="429.73" as="sourcePoint" />
            <mxPoint x="360" y="429.73" as="targetPoint" />
          </mxGeometry>
        </mxCell>
        <mxCell id="6-SauHccT2Y6gQmHOIjK-44" value="" style="endArrow=none;html=1;rounded=0;" edge="1" parent="1">
          <mxGeometry width="50" height="50" relative="1" as="geometry">
            <mxPoint x="340" y="449.73" as="sourcePoint" />
            <mxPoint x="360" y="449.73" as="targetPoint" />
          </mxGeometry>
        </mxCell>
        <mxCell id="6-SauHccT2Y6gQmHOIjK-45" value="&lt;font style=&quot;font-size: 8px;&quot;&gt;x&lt;/font&gt;&lt;font style=&quot;font-size: 6.66667px;&quot;&gt;&lt;sub&gt;2&lt;/sub&gt;&lt;/font&gt;" style="text;html=1;align=center;verticalAlign=middle;whiteSpace=wrap;rounded=0;" vertex="1" parent="1">
          <mxGeometry x="330" y="419.73" width="10" as="geometry" />
        </mxCell>
        <mxCell id="6-SauHccT2Y6gQmHOIjK-46" value="&lt;font style=&quot;font-size: 8px;&quot;&gt;x&lt;/font&gt;&lt;font style=&quot;font-size: 5.55556px;&quot;&gt;&lt;sub&gt;3&lt;/sub&gt;&lt;/font&gt;" style="text;html=1;align=center;verticalAlign=middle;whiteSpace=wrap;rounded=0;" vertex="1" parent="1">
          <mxGeometry x="330" y="439.73" width="10" as="geometry" />
        </mxCell>
      </root>
    </mxGraphModel>
  </diagram>
</mxfile>
